<?xml version="1.0" encoding="UTF-8" standalone="no"?>
<svg xmlns="http://www.w3.org/2000/svg" xmlns:xlink="http://www.w3.org/1999/xlink" xmlns:serif="http://www.serif.com/" width="100%" height="100%" viewBox="0 0 139 77" version="1.1" xml:space="preserve" style="fill-rule:evenodd;clip-rule:evenodd;stroke-linejoin:round;stroke-miterlimit:2;">
    <g transform="matrix(0.24,0,0,0.24,0,0)">
        <g transform="matrix(1.71079,0,0,1.71079,-299.927,-142.72)">
            <path d="M512,270.471C512,167.167 428.256,83.423 324.952,83.423L324.952,158.242C386.935,158.242 437.181,208.489 437.181,270.471L512,270.471Z" style="fill:rgb(107,121,135);"></path>
        </g>
        <g transform="matrix(2,0,0,2,-2.92744e-12,-226.219)">
            <path d="M128,145.11C57.308,145.11 0,202.417 0,273.11L64,273.11C64,237.763 92.654,209.11 128,209.11L128,145.11Z"></path>
        </g>
        <g transform="matrix(1.59561,0,0,1.59561,-85.0312,-8.37437)">
            <path d="M298.817,120.712C276.251,98.146 245.645,85.469 213.731,85.469C181.817,85.469 151.211,98.146 128.645,120.712L171.188,163.256C182.471,151.972 197.774,145.634 213.731,145.634C229.688,145.634 244.991,151.972 256.274,163.256L298.817,120.712Z" style="fill:rgb(201,201,201);"></path>
        </g>
        <g transform="matrix(1.59561,0,0,1.59561,-85.0312,-8.37437)">
            <path d="M213.731,85.469C181.817,85.469 151.211,98.146 128.645,120.712L156.978,149.046C172.03,133.994 192.445,125.539 213.731,125.539L213.731,85.469Z" style="fill:rgb(107,121,135);"></path>
        </g>
    </g>
</svg>
